<svg width="143" height="32" viewBox="0 0 143 32" fill="none" xmlns="http://www.w3.org/2000/svg">
<g clip-path="url(#clip0_209_45)">
<path d="M31.0728 3.83225C30.9011 2.20942 30.221 1.88234 28.9004 1.88234H23.2749C22.0401 1.88234 21.743 2.08362 21.2742 3.38566L17.055 16.5381L12.8359 3.38566C12.3671 2.08362 12.0699 1.88234 10.8352 1.88234H5.20306C3.8825 1.88234 3.20241 2.20942 3.03074 3.83225L0.0462852 29.6529C-0.0791676 30.5838 0.00666858 30.9549 0.858427 31.0744L7.29614 31.9676C8.27335 32.0871 8.49124 31.8859 8.61669 31.1939L10.0231 19.0982L13.0472 30.4266C13.3443 31.3575 13.7272 31.7286 14.7111 31.7286H19.399C20.3762 31.7286 20.7658 31.3638 21.0629 30.4266L24.0474 19.0982L25.4934 31.1939C25.6189 31.8859 25.8367 32.0871 26.814 31.9676L33.2517 31.0744C34.1034 30.9549 34.1893 30.5901 34.0638 29.6529L31.0728 3.83225Z" fill="white"/>
<path d="M46.5734 8.7843C39.3485 8.7843 35.422 13.5319 35.422 20.0784C35.422 26.6249 39.3485 31.3725 46.5734 31.3725C53.7982 31.3725 57.7247 26.6249 57.7247 20.0784C57.7247 13.5319 53.7982 8.7843 46.5734 8.7843ZM46.5734 23.9853C44.8392 23.9853 43.9099 22.4275 43.9099 20.0722C43.9099 17.717 44.8392 16.1592 46.5734 16.1592C48.3076 16.1592 49.2369 17.717 49.2369 20.0722C49.2369 22.4275 48.3076 23.9853 46.5734 23.9853Z" fill="white"/>
<path d="M73.9271 8.79684C72.446 8.79684 61.3644 9.07896 60.6435 10.0507C60.3486 10.3767 60.3486 10.8218 60.3486 11.5867L60.6894 29.2284C60.7287 30.8459 61.1154 31.3725 62.5899 31.3725H67.7539C69.2349 31.3725 69.6543 30.8459 69.6543 29.2284V17.0472C70.29 16.8466 70.4997 16.7651 71.2206 16.7212C72.1905 16.6836 72.6557 16.9657 72.9572 17.7306C73.1669 18.5393 73.2128 19.7556 73.2128 21.4106L73.1735 29.2222C73.1735 30.8396 73.6387 31.3663 75.1198 31.3663H80.4083C81.8894 31.3663 82.2695 30.8396 82.3088 29.2222L82.6495 18.4578C82.6889 15.8247 82.0991 13.3985 80.7032 11.618C79.2222 9.83754 77.0203 8.7843 73.9336 8.7843L73.9271 8.79684Z" fill="white"/>
<path d="M93.7756 11.2941H88.4599C87.0055 11.2941 86.5872 11.775 86.5872 13.3925V29.2367C86.5872 30.8479 87.0055 31.3725 88.4599 31.3725H93.8593C95.3137 31.3725 95.7706 30.8479 95.7706 29.2367L95.687 13.3925C95.687 11.8187 95.2301 11.2941 93.7756 11.2941V11.2941Z" fill="white"/>
<path d="M91.5069 0.627441C88.3585 0.627441 86.5872 2.48613 86.5872 5.0196C86.5872 7.55306 88.3585 9.41176 91.5069 9.41176C94.6552 9.41176 96.4266 7.55306 96.4266 5.0196C96.4266 2.48613 94.6552 0.627441 91.5069 0.627441V0.627441Z" fill="white"/>
<path d="M114.334 9.4415H111.064V3.98663C111.064 2.37084 110.631 1.88234 109.133 1.88234H104.058C102.553 1.88234 102.081 2.40841 102.081 3.98663V9.4415H99.5033C98.0848 9.4415 97.7385 9.68575 97.7385 10.9383V15.3473C97.7385 16.5998 98.0848 16.8441 99.5033 16.8441H102.081V24.5222C102.081 29.6953 104.957 32 110.378 32C111.97 32 113.562 31.881 115.067 31.5929C115.713 31.4739 115.886 31.3111 115.886 30.7036L115.673 24.516C115.673 23.9899 115.373 23.7895 114.814 23.9085C114.341 24.0275 113.868 24.1089 113.222 24.1089C111.977 24.1089 111.071 23.7018 111.071 21.967V16.8316H114.341C115.759 16.8316 116.105 16.5873 116.105 15.3348V10.9258C116.105 9.67322 115.759 9.42897 114.341 9.42897L114.334 9.4415Z" fill="white"/>
<path d="M128.569 8.7843C121.344 8.7843 117.417 13.5319 117.417 20.0784C117.417 26.6249 121.344 31.3725 128.569 31.3725C135.794 31.3725 139.72 26.6249 139.72 20.0784C139.72 13.5319 135.794 8.7843 128.569 8.7843ZM128.569 23.9853C126.835 23.9853 125.905 22.4275 125.905 20.0722C125.905 17.717 126.835 16.1592 128.569 16.1592C130.303 16.1592 131.232 17.717 131.232 20.0722C131.232 22.4275 130.303 23.9853 128.569 23.9853Z" fill="white"/>
<path d="M141.794 9.66894C141.036 9.14469 139.795 9.44759 139.01 10.3446C138.226 11.2417 138.207 12.3951 138.958 12.9193C139.716 13.4436 140.958 13.1407 141.742 12.2436C142.526 11.3466 142.545 10.1932 141.794 9.66894V9.66894Z" fill="white"/>
<path d="M123.956 8.14384C124.847 8.01267 125.431 6.93207 125.259 5.72655C125.087 4.52104 124.233 3.64656 123.342 3.77773C122.451 3.90891 121.867 4.9895 122.039 6.19502C122.211 7.40054 123.065 8.27501 123.956 8.14384Z" fill="white"/>
<path d="M135.5 9.25223C136.733 9.84877 138.599 8.72053 139.661 6.7299C140.724 4.73926 140.587 2.6384 139.348 2.04186C138.115 1.44532 136.25 2.57356 135.187 4.56419C134.125 6.55483 134.261 8.65569 135.5 9.25223Z" fill="white"/>
<path d="M129.119 7.51924C130.361 7.67081 131.567 6.11089 131.807 4.03943C132.046 1.96165 131.235 0.161745 129.986 0.0101741C128.744 -0.141397 127.539 1.41852 127.299 3.48998C127.059 5.56777 127.871 7.36767 129.119 7.51924Z" fill="white"/>
</g>
<defs>
<clipPath id="clip0_209_45">
<rect width="143" height="32" fill="white"/>
</clipPath>
</defs>
</svg>
